# xmcd
# Copyright (C) 1995-1998 Ti Kan
#
# Track frame offsets:
#       150
#       33279
#       72807
#       100196
#       155196
#
# Disc length: 2634 seconds
#
# Revision: 0
# Processed by: cddbd v1.5.2PL0 Copyright (c) Steve Scherf et al.
# Submitted via: CD-Transfer v1.0
#
DISCID=3a0a4805
DTITLE=King Crimson - Fripp, Mcdonald, Lake, Giles, Sinfield
DYEAR=1900
DGENRE=
TTITLE0=21st Century Shizoid Man
TTITLE1=I Talk To The Wind
TTITLE2=Epitaph
TTITLE3=Moon Child
TTITLE4=Court Of The Crimson King, The
EXTD=
EXTT0=
EXTT1=
EXTT2=
EXTT3=
EXTT4=
PLAYORDER=
